REM MD5 8464e156cc324afc2a732ff52a639e87
FILE "Kita Denshi - Virtua Pachi-Slot 2 (Japan).bin" BINARY
  TRACK 01 MODE2/2352
    INDEX 01 00:00:00
  TRACK 02 AUDIO
    INDEX 00 00:42:65
    INDEX 01 00:44:65
  TRACK 03 AUDIO
    INDEX 00 03:22:18
    INDEX 01 03:24:18
  TRACK 04 AUDIO
    INDEX 00 06:27:69
    INDEX 01 06:29:69
  TRACK 05 AUDIO
    INDEX 00 10:13:71
    INDEX 01 10:15:71
  TRACK 06 AUDIO
    INDEX 00 13:56:58
    INDEX 01 13:58:58
REM LEADOUT 17:35:69
